<svg width="1440" height="1024" viewBox="0 0 1440 1024" fill="none" xmlns="http://www.w3.org/2000/svg">
<g clip-path="url(#clip0_896_318)">
<path d="M379.447 381.098C491.27 302.792 518.434 148.653 440.129 36.831C361.848 -74.9914 207.709 -102.156 95.8869 -23.826M379.447 381.098C267.625 459.378 113.461 432.214 35.1805 320.391C-43.1001 208.569 -15.9355 54.4299 95.8869 -23.826M379.447 381.098L95.8869 -23.826" stroke="#E8916A" stroke-width="10" stroke-linecap="round" stroke-linejoin="round"/>
<path d="M424.952 17.2794C331.767 163.014 214.655 245.027 22.0059 299.431" stroke="#E8916A" stroke-width="10" stroke-linecap="round" stroke-linejoin="round"/>
<path d="M263.868 -67.1807C274.076 62.3395 347.71 167.488 477.576 238.082M-2.2666 119.165C115.958 173.05 189.567 278.198 211.466 424.403" stroke="#E8916A" stroke-width="10" stroke-linecap="round" stroke-linejoin="round"/>
<path d="M1167.08 861.556L1263.95 931.942M1167.08 861.556L1070.21 931.942M1167.08 861.556V785.16M1263.95 931.942L1226.95 1045.82H1107.24M1263.95 931.942L1332.61 899.754M1070.21 931.942L1107.24 1045.82M1070.21 931.942L1001.56 899.754M1167.08 785.16L1081.11 723.636M1167.08 785.16L1253.05 723.636M1332.61 899.754L1420.46 988.882M1332.61 899.754L1358.07 794.964M1107.24 1045.82L1065.22 1103.48M1226.98 1045.82L1268.94 1103.48M1268.94 1103.48L1387.66 1090.74M1268.94 1103.48L1205.28 1215.22M1065.22 1103.48L946.503 1090.74M1065.22 1103.48L1128.89 1215.22M1001.56 899.754L913.704 988.882M1001.56 899.754L976.094 794.964M1421.74 963.417C1421.74 1104.06 1307.73 1218.07 1167.08 1218.07C1026.44 1218.07 912.431 1104.06 912.431 963.417C912.431 822.772 1026.44 708.764 1167.08 708.764C1307.73 708.764 1421.74 822.772 1421.74 963.417Z" stroke="#E8916A" stroke-width="10" stroke-linecap="round" stroke-linejoin="round"/>
<path d="M1202.05 93.3406C1152.96 142.214 1128.24 204.171 1115.79 253.362L1337.69 474.299C1387.1 461.905 1449.32 437.293 1498.4 388.42C1547.48 339.548 1572.2 277.59 1584.65 228.388L1362.76 7.46211C1313.35 19.8558 1251.13 44.5226 1202.05 93.3406ZM1436.76 130.226L1461.46 154.816L1424.41 191.701L1449.11 216.291L1424.31 240.848L1399.58 216.291L1374.92 240.848L1399.58 265.471L1374.89 290.061L1350.22 265.471L1325.52 290.061L1350.22 314.651L1325.52 339.241L1300.87 314.651L1263.82 351.536L1239.08 326.946L1276.13 290.061L1251.43 265.471L1276.13 240.848L1300.87 265.471L1325.52 240.848L1300.87 216.291L1325.56 191.701L1350.22 216.291L1374.92 191.701L1350.22 167.111L1374.92 142.521L1399.58 167.111L1436.76 130.226ZM1594.24 178.78C1602.32 118.72 1578.35 13.8673 1578.35 13.8673C1578.35 13.8673 1472.91 -10.1304 1412.59 -2.07995C1409.8 -1.71801 1406.87 -1.29026 1403.81 -0.82961L1592.97 187.5C1593.45 184.473 1593.86 181.555 1594.24 178.78ZM1106.21 302.981C1098.13 363.041 1122.14 470.076 1122.14 470.076C1122.14 470.076 1187.95 487.625 1231.67 487.625C1250.46 487.593 1269.23 486.329 1287.86 483.841C1290.64 483.479 1293.57 483.051 1296.63 482.58L1107.47 294.261C1107 297.288 1106.58 300.206 1106.21 302.981Z" fill="#E8916A"/>
</g>
<defs>
<clipPath id="clip0_896_318">
<rect width="1440" height="1024" fill="white"/>
</clipPath>
</defs>
</svg>
